<svg width="22" height="16" viewBox="0 0 22 16" fill="none" xmlns="http://www.w3.org/2000/svg">
<path fill-rule="evenodd" clip-rule="evenodd" d="M9.35315 12.7142L9.35315 15.852L6.21531 15.852L6.21531 14.1858L4.75731 14.1858L4.75731 12.6995L3.10789 12.6995L3.10789 11.0781L1.64939 11.0781L1.64939 9.56177L-2.04309e-05 9.56177L-2.01566e-05 6.42393L1.64939 6.42393L1.64939 4.96787L3.10789 4.96787L3.10789 3.28599L4.62254 3.28599L4.62254 1.5897L6.21531 1.5897L6.21531 0.148049L9.35315 0.148049L9.35315 3.28589L7.76038 3.28589L7.76038 4.72754L6.24573 4.72754L6.24573 6.42383L4.78723 6.42383L4.78723 6.42393L6.21531 6.42393L6.24573 6.42393L9.32322 6.42393L9.35315 6.42393L12.4311 6.42393L12.4611 6.42393L15.539 6.42393L15.569 6.42393L18.6465 6.42393L18.6769 6.42393L21.7843 6.42393L21.7843 9.56177L18.6769 9.56177L15.569 9.56177L15.539 9.56177L12.4611 9.56177L12.4311 9.56177L9.35315 9.56177L9.32322 9.56177L6.24573 9.56177L6.24573 11.048L7.89514 11.048L7.89514 12.7142L9.35315 12.7142Z" fill="white"/>
</svg>
