<svg xmlns="http://www.w3.org/2000/svg" width="192" height="44" viewBox="0 0 192 44" fill="none">
  <rect x="0.450195" y="32.9766" width="11.5444" height="10.9946" fill="white"/>
  <rect x="23.5388" y="32.9766" width="11.5444" height="10.9946" fill="white"/>
  <rect x="0.450195" width="11.5444" height="10.9946" fill="white"/>
  <rect x="0.450195" y="10.9941" width="11.5444" height="10.9946" fill="white"/>
  <rect x="11.9944" width="11.5444" height="10.9946" fill="white"/>
  <rect x="11.9944" y="21.9814" width="11.5444" height="10.9946" fill="white"/>
  <rect x="35.0828" y="22.1602" width="11.5444" height="10.9946" fill="white"/>
  <rect x="35.0828" y="32.9766" width="11.5444" height="10.9946" fill="white"/>
  <rect x="191.344" y="43.9785" width="11.5444" height="10.9946" transform="rotate(-180 191.344 43.9785)" fill="white"/>
  <rect x="191.344" y="32.9844" width="11.5444" height="10.9946" transform="rotate(-180 191.344 32.9844)" fill="white"/>
  <rect x="191.344" y="10.9941" width="11.5444" height="10.9946" transform="rotate(-180 191.344 10.9941)" fill="white"/>
  <rect x="179.8" y="43.9785" width="11.5444" height="10.9946" transform="rotate(-180 179.8 43.9785)" fill="white"/>
  <rect x="179.8" y="22.1348" width="11.5444" height="10.9946" transform="rotate(-180 179.8 22.1348)" fill="white"/>
  <rect x="168.264" y="11.0684" width="11.5444" height="11.0674" transform="rotate(-180 168.264 11.0684)" fill="white"/>
  <rect x="156.719" y="22.1348" width="11.5444" height="11.0674" transform="rotate(-180 156.719 22.1348)" fill="white"/>
  <rect x="156.719" y="11.0684" width="11.5444" height="11.0674" transform="rotate(-180 156.719 11.0684)" fill="white"/>
  <path d="M39.8696 19.6262H46.5598V22.0795H35.1672V0H46.5587V2.45328H39.8696V9.81312H44.2075V12.2664H39.8696V19.6262Z" fill="white"/>
  <path d="M60.6659 2.45328H63.0171V7.35984H58.3147V2.45328H53.6123V9.81312H60.6659V12.2664H63.0171V19.6262H60.6659V22.0795H51.2611V19.6262H48.9099V14.7197H53.6123V19.6262H58.3147V12.2664H51.2611V9.81312H48.9099V2.45328H51.2611V0H60.6659V2.45328Z" fill="white"/>
  <path d="M70.0718 19.6262H75.9171V22.0795H65.3694V0H70.0718V19.6262Z" fill="white"/>
  <path d="M88.1316 14.7197H83.4292V22.0795H78.7268V2.45328H81.078V0H90.4828V2.45328H92.834V22.0795H88.1316V14.7197ZM83.4292 12.2664H88.1316V2.45328H83.4292V12.2664Z" fill="white"/>
  <path d="M98.287 12.2664H95.9358V0H100.638V12.2664H105.341V0H110.043V12.2664H107.692V17.173H105.341V22.0795H100.638V17.173H98.287V12.2664Z" fill="white"/>
  <path d="M124.901 19.6262V22.0795H115.496V19.6262H113.145V2.45328H115.496V0H124.901V2.45328H127.252V19.6262H124.901ZM117.848 19.6262H122.55V2.45328H117.848V19.6262Z" fill="white"/>
  <path d="M100.8 41.5444H106.544V43.9705H96.1794V22.1348H100.8V41.5432V41.5444Z" fill="white"/>
  <path d="M90.7351 24.561H93.0383V29.4133H88.4319V24.561H83.8254V31.8395H90.7351V34.2657H93.0383V41.5443H90.7351V43.9705H81.5222V41.5443H79.219V36.6919H83.8254V41.5443H88.4319V34.2657H81.5222V31.8395H79.219V24.561H81.5222V22.1348H90.7351V24.561Z" fill="white"/>
  <path d="M119.525 36.6923H114.919V43.9705H110.312V24.5608H112.616V22.1348H121.829V24.5608H124.132V43.9693H119.525V36.6911V36.6923ZM114.919 34.2662H119.525V24.562H114.919V34.2662Z" fill="white"/>
  <path d="M153.131 36.6923H148.525V43.9705H143.918V24.5608H146.222V22.1348H155.435V24.5608H157.738V43.9693H153.131V36.6911V36.6923ZM148.525 34.2662H153.131V24.562H148.525V34.2662Z" fill="white"/>
  <path d="M129.576 34.2657H127.272V22.1348H131.879V34.2657H136.485V22.1348H141.092V34.2657H138.789V39.1181H136.485V43.9705H131.879V39.1181H129.576V34.2657Z" fill="white"/>
</svg>