<svg width="181" height="48" viewBox="0 0 181 48" fill="none" xmlns="http://www.w3.org/2000/svg">
<rect y="35.9644" width="10.946" height="11.9888" fill="white"/>
<rect x="21.8923" y="35.9644" width="10.946" height="11.9888" fill="white"/>
<rect y="0.00634766" width="10.946" height="11.9888" fill="white"/>
<rect y="11.995" width="10.946" height="11.9888" fill="white"/>
<rect x="10.9458" y="0.00634766" width="10.946" height="11.9888" fill="white"/>
<rect x="10.9458" y="23.9757" width="10.946" height="11.9888" fill="white"/>
<rect x="32.8381" y="24.1707" width="10.946" height="11.9888" fill="white"/>
<rect x="32.8381" y="35.9644" width="10.946" height="11.9888" fill="white"/>
<rect x="181" y="47.9614" width="10.946" height="11.9888" transform="rotate(-180 181 47.9614)" fill="white"/>
<rect x="181" y="35.9728" width="10.946" height="11.9888" transform="rotate(-180 181 35.9728)" fill="white"/>
<rect x="181" y="11.995" width="10.946" height="11.9888" transform="rotate(-180 181 11.995)" fill="white"/>
<rect x="170.054" y="47.9614" width="10.946" height="11.9888" transform="rotate(-180 170.054 47.9614)" fill="white"/>
<rect x="170.054" y="24.1431" width="10.946" height="11.9888" transform="rotate(-180 170.054 24.1431)" fill="white"/>
<rect x="159.116" y="12.0747" width="10.946" height="12.0682" transform="rotate(-180 159.116 12.0747)" fill="white"/>
<rect x="148.17" y="24.1425" width="10.946" height="12.0682" transform="rotate(-180 148.17 24.1425)" fill="white"/>
<rect x="148.17" y="12.0747" width="10.946" height="12.0682" transform="rotate(-180 148.17 12.0747)" fill="white"/>
<path d="M37.3762 21.4073H43.7196V24.0824H32.9175V0.00634766H43.7185V2.68147H37.3762V10.7068H41.4892V13.382H37.3762V21.4073Z" fill="white"/>
<path d="M57.0947 2.68147H59.3241V8.03171H54.8654V2.68147H50.4067V10.7068H57.0947V13.382H59.3241V21.4073H57.0947V24.0824H48.1773V21.4073H45.948V16.0571H50.4067V21.4073H54.8654V13.382H48.1773V10.7068H45.948V2.68147H48.1773V0.00634766H57.0947V2.68147Z" fill="white"/>
<path d="M66.0134 21.4073H71.5558V24.0824H61.5547V0.00634766H66.0134V21.4073Z" fill="white"/>
<path d="M83.1371 16.0571H78.6784V24.0824H74.2197V2.68147H76.4491V0.00634766H85.3664V2.68147H87.5958V24.0824H83.1371V16.0571ZM78.6784 13.382H83.1371V2.68147H78.6784V13.382Z" fill="white"/>
<path d="M92.7665 13.382H90.5371V0.00634766H94.9958V13.382H99.4545V0.00634766H103.913V13.382H101.684V18.7322H99.4545V24.0824H94.9958V18.7322H92.7665V13.382Z" fill="white"/>
<path d="M118.001 21.4073V24.0824H109.084V21.4073H106.854V2.68147H109.084V0.00634766H118.001V2.68147H120.23V21.4073H118.001ZM111.313 21.4073H115.772V2.68147H111.313V21.4073Z" fill="white"/>
<path d="M95.1488 45.3079H100.595V47.9533H90.7676V24.1431H95.1488V45.3066V45.3079Z" fill="white"/>
<path d="M85.6053 26.7886H87.7891V32.0798H83.4214V26.7886H79.0537V34.7254H85.6053V37.371H87.7891V45.3077H85.6053V47.9533H76.8699V45.3077H74.686V40.0165H79.0537V45.3077H83.4214V37.371H76.8699V34.7254H74.686V26.7886H76.8699V24.1431H85.6053V26.7886Z" fill="white"/>
<path d="M112.904 40.017H108.536V47.9533H104.168V26.7885H106.352V24.1431H115.087V26.7885H117.271V47.952H112.904V40.0157V40.017ZM108.536 37.3715H112.904V26.7898H108.536V37.3715Z" fill="white"/>
<path d="M144.768 40.017H140.4V47.9533H136.032V26.7885H138.216V24.1431H146.952V26.7885H149.136V47.952H144.768V40.0157V40.017ZM140.4 37.3715H144.768V26.7898H140.4V37.3715Z" fill="white"/>
<path d="M122.433 37.371H120.249V24.1431H124.617V37.371H128.984V24.1431H133.352V37.371H131.168V42.6621H128.984V47.9533H124.617V42.6621H122.433V37.371Z" fill="white"/>
</svg>
