<svg width="224" height="64" viewBox="0 0 224 64" fill="none" xmlns="http://www.w3.org/2000/svg">
<path fill-rule="evenodd" clip-rule="evenodd" d="M100.642 9.24022V1.62059H108.189L108.263 1.62059L115.737 1.62059L115.81 1.62059H123.358V9.24022H130.905V16.8607H123.358H123.285H115.81H115.737H110V16.8608H115.81V24.4813H112.133V28.5277H108.263V32.1377V32.1383V36.0029L112.133 36.0029V39.7583H115.81V47.3788H108.263H108.189H100.715H100.642H93.1679H93.0947H85.5474L85.5474 39.7583H93.0947L93.1679 39.7583L100.642 39.7583L100.715 39.7583L104.512 39.7583V39.7582H100.715H100.642H93.1679H93.0947H85.5474V36.076H81.5415V28.4555H86V26L86 24.5178V17H93V16H93.0947V9.24022H100.642ZM130.832 24.4813V16.8608H138.453V24.4813H130.832ZM130.832 47.3788V39.7583L138.453 39.7583V47.3788H130.832ZM100.643 62.328V55.0001H100.642H93.0947V47.3796H100.642L100.715 47.3796L108.189 47.3796L108.263 47.3796L115.737 47.3796L115.81 47.3796L123.285 47.3796L123.358 47.3796H130.905V55.0001H123.358V62.328H115.81H115.737H108.263H108.19H100.643Z" fill="white"/>
<path fill-rule="evenodd" clip-rule="evenodd" d="M29.5166 2.17116e-07V4.9187V4.96704V9.78296V9.88574V14.75H34.4836V9.88574V9.78296V4.96704V4.9187V0L29.5166 2.17116e-07ZM4.91943 4.9187V9.88574H9.88647L9.88647 4.9187H4.91943ZM14.7583 19.8201V14.853H19.7253V19.8201H14.7583ZM44.3225 29.4774V29.7776V34.35V34.4444V39.317H39.4031H39.3555H34.4836H34.436H29.5642H29.5166H24.6448H24.5972H19.6777V34.4444V34.35V29.7776V29.4774V24.8105H24.5972H24.6448H25V19.9997H30H34H39V24.8105H39.3555H39.4031H44.3225V29.4774ZM44.2749 14.853V19.8201H49.2419V14.853H44.2749ZM9.83887 14.8528V9.88574H14.8059L14.8059 14.8528H9.83887ZM49.1943 9.88574V14.8528H54.1614V9.88574H49.1943ZM54.1133 9.88574V4.9187H59.0803V9.88574H54.1133ZM4.91943 34.397V34.4444H9.83887H9.88647H14.8059L14.8059 29.4774H9.88647H9.83887H4.96703V29.43H0V34.397H4.91943ZM49.1943 29.4774V34.4444H54.1133H54.1614H59.0803V34.397H64.0002V29.43H59.0332V29.4774H54.1614H54.1133H49.1943ZM24.5972 44.2841V39.317H29.5166H29.5642H34.436H34.4836H39.4031V44.2841H34.4836H34.436H29.5642H29.5166H24.5972ZM14.7583 49.0597V44.0927H19.7253V49.0597H14.7583ZM4.91943 53.9315V58.8986H9.88647L9.88647 54.027H14.8059L14.8059 49.06H9.83887V53.9315H4.91943ZM29.5166 58.8515V54.027V53.9315V49.06H34.4836V53.9315V54.027V58.8515V58.8986V63.8185H29.5166V58.8986V58.8515ZM44.2749 49.0597V44.0927H49.2419V49.0597H44.2749ZM54.1614 53.9315V49.06H49.1943V54.027H54.1133V58.8986H59.0803V53.9315H54.1614Z" fill="white"/>
<path fill-rule="evenodd" clip-rule="evenodd" d="M189.517 2.17116e-07V4.9187V4.96704V9.78296V9.88574V14.75H194.484V9.88574V9.78296V4.96704V4.9187V0L189.517 2.17116e-07ZM164.919 4.9187V9.88574H169.886L169.886 4.9187H164.919ZM174.758 19.8201V14.853H179.725V19.8201H174.758ZM204.323 29.4774V29.7776V34.35V34.4444V39.317H199.403H199.355H194.484H194.436H189.564H189.517H184.645H184.597H179.678V34.4444V34.35V29.7776V29.4774V24.8105H184.597H184.645H185V19.9997H190H194H199V24.8105H199.355H199.403H204.323V29.4774ZM204.275 14.853V19.8201H209.242V14.853H204.275ZM169.839 14.8528V9.88574H174.806L174.806 14.8528H169.839ZM209.194 9.88574V14.8528H214.161V9.88574H209.194ZM214.113 9.88574V4.9187H219.08V9.88574H214.113ZM164.919 34.397V34.4444H169.839H169.886H174.806L174.806 29.4774H169.886H169.839H164.967V29.43H160V34.397H164.919ZM209.194 29.4774V34.4444H214.113H214.161H219.08V34.397H224V29.43H219.033V29.4774H214.161H214.113H209.194ZM184.597 44.2841V39.317H189.517H189.564H194.436H194.484H199.403V44.2841H194.484H194.436H189.564H189.517H184.597ZM174.758 49.0597V44.0927H179.725V49.0597H174.758ZM164.919 53.9315V58.8986H169.886L169.886 54.027H174.806L174.806 49.06H169.839V53.9315H164.919ZM189.517 58.8515V54.027V53.9315V49.06H194.484V53.9315V54.027V58.8515V58.8986V63.8185H189.517V58.8986V58.8515ZM204.275 49.0597V44.0927H209.242V49.0597H204.275ZM214.161 53.9315V49.06H209.194V54.027H214.113V58.8986H219.08V53.9315H214.161Z" fill="white"/>
</svg>
