<svg width="32" height="96" viewBox="0 0 32 96" fill="none" xmlns="http://www.w3.org/2000/svg">
  <path fill-rule="evenodd" clip-rule="evenodd" d="M32 55.814L23.814 55.814L23.814 64L32 64L32 55.814ZM23.814 40.1862L32 40.1862L32 48.0002L23.814 48.0002L23.814 40.1862ZM23.814 40.1862L23.814 32.0002L32 32.0002L32 40.1862L23.814 40.1862ZM15.9995 55.814L8.18606 55.814L8.18606 64L16 64L16 55.814L23.8135 55.814L23.8135 48.0001L15.9995 48.0001L15.9995 55.814ZM23.8135 32.0002L15.9995 32.0002L15.9995 40.1862L23.8135 40.1862L23.8135 32.0002ZM8.18604 48.0001L-6.97249e-07 48.0001L0 55.814L-6.97248e-07 55.814L0 64L8.18604 64L8.18604 55.814L8.18604 55.814L8.18604 48.0001Z" fill="white"/>
  <path fill-rule="evenodd" clip-rule="evenodd" d="M32 87.814L23.814 87.814L23.814 96L32 96L32 87.814ZM23.814 72.1862L32 72.1862L32 80.0002L23.814 80.0002L23.814 72.1862ZM23.814 72.1862L23.814 64.0002L32 64.0002L32 72.1862L23.814 72.1862ZM15.9995 87.814L8.18606 87.814L8.18606 96L16 96L16 87.814L23.8135 87.814L23.8135 80.0001L15.9995 80.0001L15.9995 87.814ZM23.8135 64.0002L15.9995 64.0002L15.9995 72.1862L23.8135 72.1862L23.8135 64.0002ZM8.18604 80.0001L-6.97249e-07 80.0001L0 87.814L-6.97249e-07 87.814L0 96L8.18604 96L8.18604 87.814L8.18604 87.814L8.18604 80.0001Z" fill="white"/>
  <path fill-rule="evenodd" clip-rule="evenodd" d="M32 23.814L23.814 23.814L23.814 32L32 32L32 23.814ZM23.814 8.18622L32 8.18622L32 16.0002L23.814 16.0002L23.814 8.18622ZM23.814 8.18621L23.814 0.000165807L32 0.000165106L32 8.18621L23.814 8.18621ZM15.9995 23.814L8.18606 23.814L8.18606 32L16 32L16 23.814L23.8135 23.814L23.8135 16.0001L15.9995 16.0001L15.9995 23.814ZM23.8135 0.000165807L15.9995 0.000166476L15.9995 8.18621L23.8135 8.18621L23.8135 0.000165807ZM8.18604 16.0001L-6.97248e-07 16.0001L0 23.814L-6.97249e-07 23.814L0 32L8.18604 32L8.18604 23.814L8.18604 23.814L8.18604 16.0001Z" fill="white"/>
</svg>