<svg width="76" height="76" viewBox="0 0 76 76" fill="none" xmlns="http://www.w3.org/2000/svg">
<path fill-rule="evenodd" clip-rule="evenodd" d="M35.1965 0.0664065V5.86732V5.92452V11.7254H41.0546V5.92452V5.86731V0.0664062L35.1965 0.0664065ZM6.25308 11.7254L6.25308 5.86732L12.1112 5.86731V11.7254H6.25308ZM35.1965 11.7263V17.5844H41.0546V11.7263L35.1965 11.7263ZM17.9136 17.5843V11.7263L12.0555 11.7263V17.5844H17.8574V23.4424H23.7156V17.5843H17.9136ZM46.857 35.1868H52.6589V41.0443H52.7257V46.9024H46.9235V52.6566H41.1212H41.0654H35.3195H35.2631H29.4614V46.9024H29.4613H23.6594V41.0449V41.0443V35.1868H29.4613H29.5175H35.1965H35.3194H40.9989H41.0546H46.8008H46.857ZM17.8574 58.3936V52.5355H23.7156V58.3936H17.8574ZM41.0546 35.1864H40.9989H35.2532H35.1965H29.4507H29.3951H23.5926V29.3283H29.3951H29.4507H29.5158V23.7559H35.1419H35.1423H40.7684V29.3283H40.7686V23.7559H47.0983V29.3283H52.6589V35.1864H46.857H46.8008H41.0546ZM6.25308 64.1399L6.25308 69.998H12.1112V64.2521H17.9136V58.394H12.0555V64.1399H6.25308ZM35.2632 69.9423V64.2521V64.1399V58.394H41.1213V64.1399V64.2521V69.9423V69.998V75.8004H35.2632V69.998V69.9423ZM6.25308 40.9889V41.0449H12.0555H12.1112H17.9136V35.1868H12.1112H12.0555H6.30977V35.1307H0.45166L0.45166 40.9889H6.25308ZM52.669 17.5843V23.4424H58.5271V17.5844H64.3296V11.7263L58.4714 11.7263V17.5843H52.669ZM52.669 58.3936V52.5355H58.5271V58.3936H52.669ZM64.2729 11.7254V5.86732L70.131 5.86731V11.7254H64.2729ZM64.2729 64.2521V69.998H70.131V64.1399H64.3296V58.394H58.4714V64.2521H64.2729ZM58.4714 35.1868V41.0449H64.2729H64.3296H70.131V40.9889H75.9339V35.1307H70.0758V35.1868H64.3296H64.2729H58.4714Z" fill="#6359B8"/>
</svg>
