<svg width="71" height="77" viewBox="0 0 71 77" fill="none" xmlns="http://www.w3.org/2000/svg">
<path fill-rule="evenodd" clip-rule="evenodd" d="M23.7607 1.99268V11.4448H14.3979V19.8987H14.3977V19.8989H6.23828L6.23828 24.0551V29.3525L6.23828 34.2827H1.06543V43.7363H6.03516V48.3042L14.3977 48.3042H6.03516L6.03516 57.7578H14.3979V66.2124H23.7607V75.3027H33.124H33.2143H42.4868H42.5776H51.9404V66.2124H61.3037V56.7588H51.9399H51.8501H42.5776H42.5775V48.304H38.015V43.6451H34.0673V39.709V39.7085V34.372H38.015V29.3523H42.5775V20.8984H42.5776H51.8501H51.9399H61.3037V11.4448H51.9399V1.99268H42.5776H42.4863H33.2143H33.124H23.7607ZM15.8047 29.3523L15.8047 38.8506H15.8046V29.3523H15.8047ZM61.2129 30.3525V20.8989H70.6665V30.3525H61.2129ZM61.2129 56.7578V47.3042H70.6665V56.7578H61.2129Z" fill="#6359B8"/>
</svg>
